<?xml version="1.0" standalone="no"?>
<!DOCTYPE svg PUBLIC "-//W3C//DTD SVG 20010904//EN"
 "http://www.w3.org/TR/2001/REC-SVG-20010904/DTD/svg10.dtd">
<svg version="1.0" xmlns="http://www.w3.org/2000/svg"
 width="512.000000pt" height="512.000000pt" viewBox="0 0 512.000000 512.000000"
 preserveAspectRatio="xMidYMid meet">
<metadata>
Created by potrace 1.11, written by Peter Selinger 2001-2013
</metadata>
<g transform="translate(0.000000,512.000000) scale(0.100000,-0.100000)"
fill="#000000" stroke="none">
<path d="M4750 5088 c-26 -19 -106 -161 -421 -753 -214 -401 -389 -733 -389
-736 0 -3 137 -67 306 -142 l305 -135 10 26 c73 187 559 1547 559 1562 0 38
-39 98 -86 135 -87 65 -221 86 -284 43z"/>
<path d="M233 4330 c-59 -12 -112 -42 -154 -87 -56 -58 -72 -98 -77 -189 -4
-72 -1 -89 20 -135 35 -77 70 -113 140 -148 51 -26 73 -31 134 -31 62 0 81 5
135 33 107 55 162 147 161 273 -1 183 -176 321 -359 284z"/>
<path d="M1089 4117 c-146 -77 -144 -283 4 -358 55 -29 150 -23 199 10 106 73
119 231 26 318 -59 56 -156 68 -229 30z"/>
<path d="M3350 3421 c-117 -32 -216 -93 -300 -185 -44 -49 -100 -135 -100
-156 1 -10 279 -139 923 -424 507 -226 930 -410 941 -410 28 -1 56 90 63 205
15 250 -109 473 -327 588 -124 65 -833 372 -892 386 -85 20 -227 18 -308 -4z"/>
<path d="M944 3331 c-84 -24 -148 -64 -216 -133 -95 -96 -138 -204 -138 -344
0 -225 142 -413 358 -475 314 -90 632 151 632 478 0 168 -103 346 -246 427
-113 64 -266 83 -390 47z"/>
<path d="M2774 2763 c-108 -177 -197 -282 -334 -392 -162 -130 -303 -214 -510
-301 -317 -133 -637 -207 -999 -230 -102 -6 -176 -16 -201 -26 -101 -41 -149
-169 -99 -267 48 -92 301 -363 504 -536 615 -528 1455 -892 2297 -996 287 -35
309 -27 452 174 246 347 522 887 719 1411 62 167 111 310 106 314 -17 15 -372
127 -378 120 -4 -5 -25 -58 -46 -119 -168 -490 -417 -1009 -662 -1385 -42 -63
-77 -117 -79 -119 -9 -10 -333 46 -521 90 l-52 12 37 46 c61 73 111 148 184
271 76 127 212 399 204 408 -3 2 -38 -24 -78 -59 -315 -279 -609 -452 -821
-484 -56 -9 -119 15 -361 137 l-158 80 49 52 c61 64 105 120 170 216 54 81
113 182 113 194 0 4 -26 -15 -57 -42 -128 -110 -301 -196 -482 -237 l-63 -15
-52 37 c-151 109 -406 325 -406 344 0 5 11 9 24 9 70 0 415 83 591 142 564
189 992 500 1227 892 27 43 48 83 48 87 0 7 -331 199 -344 199 -3 0 -13 -12
-22 -27z"/>
</g>
</svg>
